HIERARCHY
ROOT Hips
{
  OFFSET 0.0000 94.0000 0.0000
  CHANNELS 6 Xposition Yposition Zposition Yrotation Xrotation Zrotation
  JOINT Spine1
  {
    OFFSET 0.0000 8.4838 -3.9483
    CHANNELS 3 Yrotation Xrotation Zrotation
    JOINT Spine2
    {
      OFFSET 0.0000 -7.5500 0.0000
      CHANNELS 3 Yrotation Xrotation Zrotation
      JOINT Spine3
      {
        OFFSET 0.0000 -7.5500 0.0000
        CHANNELS 3 Yrotation Xrotation Zrotation
        JOINT Spine4
        {
          OFFSET 0.0000 -12.7487 0.0000
          CHANNELS 3 Yrotation Xrotation Zrotation
          JOINT Neck
          {
            OFFSET 0.0000 -20.1503 0.0000
            CHANNELS 3 Yrotation Xrotation Zrotation
            JOINT Head
            {
              OFFSET 0.0000 -11.1009 0.0000
              CHANNELS 3 Yrotation Xrotation Zrotation
              JOINT HeadTip
              {
                OFFSET 0.0000 -16.8536 0.0000
                CHANNELS 3 Yrotation Xrotation Zrotation
                End Site
                {
                  OFFSET 0.0000 -8.4268 0.0000
                }
              }
            }
          }
          JOINT RightShoulder
          {
            OFFSET 7.0000 -12.3681 1.9038
            CHANNELS 3 Yrotation Xrotation Zrotation
            JOINT RightArm
            {
              OFFSET 0.0000 -13.6078 0.0000
              CHANNELS 3 Yrotation Xrotation Zrotation
              JOINT RightForeArm
              {
                OFFSET 0.0000 -27.1022 0.0000
                CHANNELS 3 Yrotation Xrotation Zrotation
                JOINT RightHand
                {
                  OFFSET 0.0000 -28.3000 0.0000
                  CHANNELS 3 Yrotation Xrotation Zrotation
                  JOINT RightFinger1Metacarpal
                  {
                    OFFSET -2.7849 -2.0780 0.1030
                    CHANNELS 3 Yrotation Xrotation Zrotation
                    JOINT RightFinger1Proximal
                    {
                      OFFSET 0.0000 -3.9891 0.0000
                      CHANNELS 3 Yrotation Xrotation Zrotation
                      JOINT RightFinger1Distal
                      {
                        OFFSET 0.0000 -3.0278 0.0000
                        CHANNELS 3 Yrotation Xrotation Zrotation
                        JOINT RightFinger1Tip
                        {
                          OFFSET 0.0000 -3.4590 0.0000
                          CHANNELS 3 Yrotation Xrotation Zrotation
                          End Site
                          {
                            OFFSET 0.0000 -1.7295 0.0000
                          }
                        }
                      }
                    }
                  }
                  JOINT RightFinger5Metacarpal
                  {
                    OFFSET 1.4876 -2.4879 0.1030
                    CHANNELS 3 Yrotation Xrotation Zrotation
                    JOINT RightFinger5Proximal
                    {
                      OFFSET 0.0000 -4.7463 0.0000
                      CHANNELS 3 Yrotation Xrotation Zrotation
                      JOINT RightFinger5Medial
                      {
                        OFFSET 0.0000 -3.5000 0.0000
                        CHANNELS 3 Yrotation Xrotation Zrotation
                        JOINT RightFinger5Distal
                        {
                          OFFSET 0.0000 -2.2000 0.0000
                          CHANNELS 3 Yrotation Xrotation Zrotation
                          JOINT RightFinger5Tip
                          {
                            OFFSET 0.0000 -2.2409 0.0000
                            CHANNELS 3 Yrotation Xrotation Zrotation
                            End Site
                            {
                              OFFSET 0.0000 -1.1205 0.0000
                            }
                          }
                        }
                      }
                    }
                  }
                  JOINT RightFinger4Metacarpal
                  {
                    OFFSET 0.5475 -2.7430 0.1030
                    CHANNELS 3 Yrotation Xrotation Zrotation
                    JOINT RightFinger4Proximal
                    {
                      OFFSET 0.0000 -5.0325 0.0000
                      CHANNELS 3 Yrotation Xrotation Zrotation
                      JOINT RightFinger4Medial
                      {
                        OFFSET 0.0000 -4.3000 0.0000
                        CHANNELS 3 Yrotation Xrotation Zrotation
                        JOINT RightFinger4Distal
                        {
                          OFFSET 0.0000 -2.7732 0.0000
                          CHANNELS 3 Yrotation Xrotation Zrotation
                          JOINT RightFinger4Tip
                          {
                            OFFSET 0.0000 -2.7000 0.0000
                            CHANNELS 3 Yrotation Xrotation Zrotation
                            End Site
                            {
                              OFFSET 0.0000 -1.3500 0.0000
                            }
                          }
                        }
                      }
                    }
                  }
                  JOINT RightFinger3Metacarpal
                  {
                    OFFSET -0.5447 -2.7674 0.1030
                    CHANNELS 3 Yrotation Xrotation Zrotation
                    JOINT RightFinger3Proximal
                    {
                      OFFSET 0.0000 -5.3650 0.0000
                      CHANNELS 3 Yrotation Xrotation Zrotation
                      JOINT RightFinger3Medial
                      {
                        OFFSET 0.0000 -4.7000 0.0000
                        CHANNELS 3 Yrotation Xrotation Zrotation
                        JOINT RightFinger3Distal
                        {
                          OFFSET 0.0000 -3.1000 0.0000
                          CHANNELS 3 Yrotation Xrotation Zrotation
                          JOINT RightFinger3Tip
                          {
                            OFFSET 0.0000 -2.9982 0.0000
                            CHANNELS 3 Yrotation Xrotation Zrotation
                            End Site
                            {
                              OFFSET 0.0000 -1.4991 0.0000
                            }
                          }
                        }
                      }
                    }
                  }
                  JOINT RightFinger2Metacarpal
                  {
                    OFFSET -1.6034 -2.6456 0.1030
                    CHANNELS 3 Yrotation Xrotation Zrotation
                    JOINT RightFinger2Proximal
                    {
                      OFFSET 0.0000 -5.4138 0.0000
                      CHANNELS 3 Yrotation Xrotation Zrotation
                      JOINT RightFinger2Medial
                      {
                        OFFSET 0.0000 -4.5000 0.0000
                        CHANNELS 3 Yrotation Xrotation Zrotation
                        JOINT RightFinger2Distal
                        {
                          OFFSET 0.0000 -2.7685 0.0000
                          CHANNELS 3 Yrotation Xrotation Zrotation
                          JOINT RightFinger2Tip
                          {
                            OFFSET 0.0000 -2.7132 0.0000
                            CHANNELS 3 Yrotation Xrotation Zrotation
                            End Site
                            {
                              OFFSET 0.0000 -1.3566 0.0000
                            }
                          }
                        }
                      }
                    }
                  }
                }
              }
            }
          }
          JOINT LeftShoulder
          {
            OFFSET -7.0000 -12.3681 1.9038
            CHANNELS 3 Yrotation Xrotation Zrotation
            JOINT LeftArm
            {
              OFFSET 0.0000 -13.6078 0.0000
              CHANNELS 3 Yrotation Xrotation Zrotation
              JOINT LeftForeArm
              {
                OFFSET 0.0001 -27.1022 0.0000
                CHANNELS 3 Yrotation Xrotation Zrotation
                JOINT LeftHand
                {
                  OFFSET 0.0000 -28.3000 0.0000
                  CHANNELS 3 Yrotation Xrotation Zrotation
                  JOINT LeftFinger5Metacarpal
                  {
                    OFFSET -1.4876 -2.4879 0.1030
                    CHANNELS 3 Yrotation Xrotation Zrotation
                    JOINT LeftFinger5Proximal
                    {
                      OFFSET 0.0000 -4.7463 0.0000
                      CHANNELS 3 Yrotation Xrotation Zrotation
                      JOINT LeftFinger5Medial
                      {
                        OFFSET 0.0000 -3.5000 0.0000
                        CHANNELS 3 Yrotation Xrotation Zrotation
                        JOINT LeftFinger5Distal
                        {
                          OFFSET 0.0000 -2.2000 0.0000
                          CHANNELS 3 Yrotation Xrotation Zrotation
                          JOINT LeftFinger5Tip
                          {
                            OFFSET 0.0000 -2.2409 0.0000
                            CHANNELS 3 Yrotation Xrotation Zrotation
                            End Site
                            {
                              OFFSET 0.0000 -1.1205 0.0000
                            }
                          }
                        }
                      }
                    }
                  }
                  JOINT LeftFinger4Metacarpal
                  {
                    OFFSET -0.5475 -2.7430 0.1030
                    CHANNELS 3 Yrotation Xrotation Zrotation
                    JOINT LeftFinger4Proximal
                    {
                      OFFSET 0.0000 -5.0325 0.0000
                      CHANNELS 3 Yrotation Xrotation Zrotation
                      JOINT LeftFinger4Medial
                      {
                        OFFSET 0.0000 -4.3000 0.0000
                        CHANNELS 3 Yrotation Xrotation Zrotation
                        JOINT LeftFinger4Distal
                        {
                          OFFSET 0.0000 -2.7732 0.0000
                          CHANNELS 3 Yrotation Xrotation Zrotation
                          JOINT LeftFinger4Tip
                          {
                            OFFSET 0.0000 -2.7000 0.0000
                            CHANNELS 3 Yrotation Xrotation Zrotation
                            End Site
                            {
                              OFFSET 0.0000 -1.3500 0.0000
                            }
                          }
                        }
                      }
                    }
                  }
                  JOINT LeftFinger3Metacarpal
                  {
                    OFFSET 0.5447 -2.7674 0.1030
                    CHANNELS 3 Yrotation Xrotation Zrotation
                    JOINT LeftFinger3Proximal
                    {
                      OFFSET 0.0000 -5.3650 0.0000
                      CHANNELS 3 Yrotation Xrotation Zrotation
                      JOINT LeftFinger3Medial
                      {
                        OFFSET 0.0000 -4.7000 0.0000
                        CHANNELS 3 Yrotation Xrotation Zrotation
                        JOINT LeftFinger3Distal
                        {
                          OFFSET 0.0000 -3.1000 0.0000
                          CHANNELS 3 Yrotation Xrotation Zrotation
                          JOINT LeftFinger3Tip
                          {
                            OFFSET 0.0000 -2.9982 0.0000
                            CHANNELS 3 Yrotation Xrotation Zrotation
                            End Site
                            {
                              OFFSET 0.0000 -1.4991 0.0000
                            }
                          }
                        }
                      }
                    }
                  }
                  JOINT LeftFinger2Metacarpal
                  {
                    OFFSET 1.6034 -2.6456 0.1030
                    CHANNELS 3 Yrotation Xrotation Zrotation
                    JOINT LeftFinger2Proximal
                    {
                      OFFSET 0.0000 -5.4138 0.0000
                      CHANNELS 3 Yrotation Xrotation Zrotation
                      JOINT LeftFinger2Medial
                      {
                        OFFSET 0.0000 -4.5000 0.0000
                        CHANNELS 3 Yrotation Xrotation Zrotation
                        JOINT LeftFinger2Distal
                        {
                          OFFSET 0.0000 -2.7685 0.0000
                          CHANNELS 3 Yrotation Xrotation Zrotation
                          JOINT LeftFinger2Tip
                          {
                            OFFSET 0.0000 -2.7131 0.0000
                            CHANNELS 3 Yrotation Xrotation Zrotation
                            End Site
                            {
                              OFFSET 0.0000 -1.3566 0.0000
                            }
                          }
                        }
                      }
                    }
                  }
                  JOINT LeftFinger1Metacarpal
                  {
                    OFFSET 2.7849 -2.0780 0.1030
                    CHANNELS 3 Yrotation Xrotation Zrotation
                    JOINT LeftFinger1Proximal
                    {
                      OFFSET 0.0000 -3.9891 0.0000
                      CHANNELS 3 Yrotation Xrotation Zrotation
                      JOINT LeftFinger1Distal
                      {
                        OFFSET 0.0000 -3.0278 0.0000
                        CHANNELS 3 Yrotation Xrotation Zrotation
                        JOINT LeftFinger1Tip
                        {
                          OFFSET 0.0000 -3.4590 0.0000
                          CHANNELS 3 Yrotation Xrotation Zrotation
                          End Site
                          {
                            OFFSET 0.0000 -1.7295 0.0000
                          }
                        }
                      }
                    }
                  }
                }
              }
            }
          }
        }
      }
    }
  }
  JOINT RightThigh
  {
    OFFSET -8.1000 0.0000 0.0000
    CHANNELS 3 Yrotation Xrotation Zrotation
    JOINT RightShin
    {
      OFFSET 0.0000 -43.2000 0.0000
      CHANNELS 3 Yrotation Xrotation Zrotation
      JOINT RightFoot
      {
        OFFSET 0.0000 -43.3000 -0.0626
        CHANNELS 3 Yrotation Xrotation Zrotation
        JOINT RightToe
        {
          OFFSET 0.0000 -13.1694 6.2394
          CHANNELS 3 Yrotation Xrotation Zrotation
          JOINT RightToeTip
          {
            OFFSET 0.0000 -7.4457 1.2571
            CHANNELS 3 Yrotation Xrotation Zrotation
            End Site
            {
              OFFSET 0.0000 -3.7228 0.6286
            }
          }
        }
      }
    }
  }
  JOINT LeftThigh
  {
    OFFSET 8.1000 0.0000 0.0000
    CHANNELS 3 Yrotation Xrotation Zrotation
    JOINT LeftShin
    {
      OFFSET 0.0000 -43.2000 0.0000
      CHANNELS 3 Yrotation Xrotation Zrotation
      JOINT LeftFoot
      {
        OFFSET 0.0000 -43.3000 -0.0626
        CHANNELS 3 Yrotation Xrotation Zrotation
        JOINT LeftToe
        {
          OFFSET 0.0000 -13.1694 6.2394
          CHANNELS 3 Yrotation Xrotation Zrotation
          JOINT LeftToeTip
          {
            OFFSET 0.0000 -7.4457 1.2571
            CHANNELS 3 Yrotation Xrotation Zrotation
            End Site
            {
              OFFSET 0.0000 -3.7228 0.6286
            }
          }
        }
      }
    }
  }
}
MOTION
Frames: 4
Frame Time: 0.010000
8.5954 93.6228 -7.2110 13.9212 23.1612 2.3332 0.0000 0.0000 180.0000 0.0000 0.0000 0.0000 0.0000 0.0000 0.0000 24.2083 -0.0001 0.0000 0.0000 0.0001 0.0000 -0.1181 2.0001 -0.0115 0.0000 0.0000 0.0000 0.0001 0.0000 90.0005 156.4824 -27.3598 -96.5789 0.0000 0.0000 -31.2371 0.0000 0.0000 0.0000 104.2979 28.5705 -11.4108 0.0000 -9.0000 0.0000 0.0000 -9.0000 0.0000 0.0000 0.0003 0.0000 -5.9303 -5.1186 20.5898 -10.8000 -18.0000 -9.0000 0.0000 -18.0000 0.0000 0.0000 -18.0000 0.0000 0.0000 0.0000 0.0000 -2.7258 -2.5476 10.1280 -5.4000 -18.0000 -9.0000 0.0000 -18.0000 0.0000 0.0000 -18.0000 0.0000 0.0000 0.0000 0.0000 0.0000 0.0000 0.0000 0.0000 -18.0000 -5.4000 0.0000 -18.0000 0.0000 0.0000 -18.0000 0.0000 0.0000 0.0000 0.0000 1.2310 0.2170 -9.9977 0.0000 -18.0000 1.8000 0.0000 -18.0000 0.0000 0.0000 -18.0000 0.0000 0.0000 0.0000 0.0000 0.0000 0.0001 -90.0003 -154.6163 -17.5629 69.3171 0.0000 -0.0002 46.4515 0.0000 0.0000 0.0000 5.9303 -5.1186 -20.5898 10.8000 -18.0000 9.0000 0.0000 -18.0000 0.0000 0.0000 -18.0000 0.0000 0.0000 0.0000 0.0000 2.7258 -2.5476 -10.1280 5.4000 -18.0000 9.0000 0.0000 -18.0000 0.0000 0.0000 -18.0000 0.0000 0.0000 0.0000 0.0000 0.0000 0.0000 0.0000 0.0000 -18.0000 5.4000 0.0000 -18.0000 0.0000 0.0000 -18.0000 0.0000 0.0000 0.0000 0.0000 -1.2310 0.2170 9.9977 0.0000 -18.0000 -1.8000 0.0000 -18.0000 0.0000 0.0000 -18.0000 0.0000 0.0002 0.0000 0.0000 -104.2979 28.5705 11.4108 0.0000 -9.0000 0.0000 0.0000 -9.0000 0.0000 0.0000 0.0004 0.0000 54.4531 -6.3887 -28.6488 0.0004 0.0112 30.8882 -102.1479 81.5445 168.2714 0.0000 10.1038 0.0000 0.0000 0.0000 0.0000 -79.9475 -1.7351 36.5209 -0.0005 0.0144 -32.7769 146.4049 84.5300 -124.7219 0.0000 10.7772 0.0000 0.0000 0.0000 0.0000 
8.5093 93.9318 -7.1115 13.9979 21.1142 1.7978 0.0000 0.0000 180.0000 0.0000 0.0000 0.0000 0.0000 0.0000 0.0000 23.9963 -0.0001 0.0000 0.0000 0.0001 0.0000 0.0644 1.1566 -0.1043 0.0000 0.0000 0.0000 0.0001 0.0000 90.0005 156.8382 -25.3291 -97.3839 0.0000 0.0000 -33.2069 0.0000 0.0000 0.0000 104.2979 28.5705 -11.4108 0.0000 -9.0000 0.0000 0.0000 -9.0000 0.0000 0.0000 0.0003 0.0000 -5.9303 -5.1186 20.5898 -10.8000 -18.0000 -9.0000 0.0000 -18.0000 0.0000 0.0000 -18.0000 0.0000 0.0000 0.0000 0.0000 -2.7258 -2.5476 10.1280 -5.4000 -18.0000 -9.0000 0.0000 -18.0000 0.0000 0.0000 -18.0000 0.0000 0.0000 0.0000 0.0000 0.0000 0.0000 0.0000 0.0000 -18.0000 -5.4000 0.0000 -18.0000 0.0000 0.0000 -18.0000 0.0000 0.0000 0.0000 0.0000 1.2310 0.2170 -9.9977 0.0000 -18.0000 1.8000 0.0000 -18.0000 0.0000 0.0000 -18.0000 0.0000 0.0000 0.0000 0.0000 0.0000 0.0001 -90.0003 -153.8320 -15.3359 69.1706 0.0000 -0.0002 50.5327 0.0000 0.0000 0.0000 5.9303 -5.1186 -20.5898 10.8000 -18.0000 9.0000 0.0000 -18.0000 0.0000 0.0000 -18.0000 0.0000 0.0000 0.0000 0.0000 2.7258 -2.5476 -10.1280 5.4000 -18.0000 9.0000 0.0000 -18.0000 0.0000 0.0000 -18.0000 0.0000 0.0000 0.0000 0.0000 0.0000 0.0000 0.0000 0.0000 -18.0000 5.4000 0.0000 -18.0000 0.0000 0.0000 -18.0000 0.0000 0.0000 0.0000 0.0000 -1.2310 0.2170 9.9977 0.0000 -18.0000 -1.8000 0.0000 -18.0000 0.0000 0.0000 -18.0000 0.0000 0.0002 0.0000 0.0000 -104.2979 28.5705 11.4108 0.0000 -9.0000 0.0000 0.0000 -9.0000 0.0000 0.0000 0.0004 0.0000 54.9873 -5.4654 -25.2545 0.0003 0.0102 28.1770 -103.3506 82.1173 167.0444 0.0000 9.6498 0.0000 0.0000 0.0000 0.0000 -80.9291 -0.4088 33.6281 -0.0004 0.0127 -30.9180 146.7498 84.8324 -124.2749 0.0000 10.3182 0.0000 0.0000 0.0000 0.0000 
8.4077 94.1904 -6.9881 14.0712 19.0732 1.2547 0.0000 0.0000 180.0000 0.0000 0.0000 0.0000 0.0000 0.0000 0.0000 23.7308 -0.0001 0.0000 0.0000 0.0001 0.0000 0.2818 0.3156 -0.1877 0.0000 0.0000 0.0000 0.0001 0.0000 90.0005 157.1208 -23.6647 -98.2218 0.0000 0.0000 -35.2200 0.0000 0.0000 0.0000 104.2980 28.5705 -11.4108 0.0000 -9.0000 0.0000 0.0000 -9.0000 0.0000 0.0000 0.0003 0.0000 -5.9303 -5.1186 20.5898 -10.8000 -18.0000 -9.0000 0.0000 -18.0000 0.0000 0.0000 -18.0000 0.0000 0.0000 0.0000 0.0000 -2.7258 -2.5476 10.1280 -5.4000 -18.0000 -9.0000 0.0000 -18.0000 0.0000 0.0000 -18.0000 0.0000 0.0000 0.0000 0.0000 0.0000 0.0000 0.0000 0.0000 -18.0000 -5.4000 0.0000 -18.0000 0.0000 0.0000 -18.0000 0.0000 0.0000 0.0000 0.0000 1.2310 0.2170 -9.9977 0.0000 -18.0000 1.8000 0.0000 -18.0000 0.0000 0.0000 -18.0000 0.0000 0.0000 0.0000 0.0000 0.0000 0.0001 -90.0003 -152.6100 -13.4021 69.0040 0.0000 -0.0002 54.7213 0.0000 0.0000 0.0000 5.9303 -5.1186 -20.5898 10.8000 -18.0000 9.0000 0.0000 -18.0000 0.0000 0.0000 -18.0000 0.0000 0.0000 0.0000 0.0000 2.7258 -2.5476 -10.1280 5.4000 -18.0000 9.0000 0.0000 -18.0000 0.0000 0.0000 -18.0000 0.0000 0.0000 0.0000 0.0000 0.0000 0.0000 0.0000 0.0000 -18.0000 5.4000 0.0000 -18.0000 0.0000 0.0000 -18.0000 0.0000 0.0000 0.0000 0.0000 -1.2310 0.2170 9.9977 0.0000 -18.0000 -1.8000 0.0000 -18.0000 0.0000 0.0000 -18.0000 0.0000 0.0002 0.0000 0.0000 -104.2979 28.5705 11.4108 0.0000 -9.0000 0.0000 0.0000 -9.0000 0.0000 0.0000 0.0004 0.0000 55.7310 -4.5688 -21.8334 0.0002 0.0089 25.4546 -104.7366 82.6781 165.6330 0.0000 9.2148 0.0000 0.0000 0.0000 0.0000 -82.0115 0.8994 30.7640 -0.0003 0.0113 -29.2103 146.1891 85.0993 -124.7347 0.0000 9.8699 0.0000 0.0000 0.0000 0.0000 
8.2880 94.3979 -6.8374 14.1412 17.0435 0.7067 0.0000 0.0000 180.0000 0.0000 0.0000 0.0000 0.0000 0.0000 0.0000 23.4128 -0.0001 0.0000 0.0000 0.0001 0.0000 0.5326 -0.5174 -0.2611 0.0000 0.0000 0.0000 0.0001 0.0000 90.0005 157.3340 -22.3462 -99.0909 0.0000 0.0000 -37.2338 0.0000 0.0000 0.0000 104.2979 28.5705 -11.4108 0.0000 -9.0000 0.0000 0.0000 -9.0000 0.0000 0.0000 0.0003 0.0000 -5.9303 -5.1186 20.5898 -10.8000 -18.0000 -9.0000 0.0000 -18.0000 0.0000 0.0000 -18.0000 0.0000 0.0000 0.0000 0.0000 -2.7258 -2.5476 10.1280 -5.4000 -18.0000 -9.0000 0.0000 -18.0000 0.0000 0.0000 -18.0000 0.0000 0.0000 0.0000 0.0000 0.0000 0.0000 0.0000 0.0000 -18.0000 -5.4000 0.0000 -18.0000 0.0000 0.0000 -18.0000 0.0000 0.0000 0.0000 0.0000 1.2310 0.2170 -9.9977 0.0000 -18.0000 1.8000 0.0000 -18.0000 0.0000 0.0000 -18.0000 0.0000 0.0000 0.0000 0.0000 0.0000 0.0001 -90.0003 -150.9422 -11.7631 68.8554 0.0000 -0.0002 58.9132 0.0000 0.0000 0.0000 5.9303 -5.1186 -20.5898 10.8000 -18.0000 9.0000 0.0000 -18.0000 0.0000 0.0000 -18.0000 0.0000 0.0000 0.0000 0.0000 2.7258 -2.5476 -10.1280 5.4000 -18.0000 9.0000 0.0000 -18.0000 0.0000 0.0000 -18.0000 0.0000 0.0000 0.0000 0.0000 0.0000 0.0000 0.0000 0.0000 -18.0000 5.4000 0.0000 -18.0000 0.0000 0.0000 -18.0000 0.0000 0.0000 0.0000 0.0000 -1.2310 0.2170 9.9977 0.0000 -18.0000 -1.8000 0.0000 -18.0000 0.0000 0.0000 -18.0000 0.0000 0.0002 0.0000 0.0000 -104.2979 28.5705 11.4108 0.0000 -9.0000 0.0000 0.0000 -9.0000 0.0000 0.0000 0.0004 0.0000 56.7266 -3.7125 -18.3875 0.0001 0.0072 22.7274 -106.3515 83.2229 163.9925 0.0000 8.8045 0.0000 0.0000 0.0000 0.0000 -83.2052 2.1815 27.9389 -0.0002 0.0104 -27.6806 144.4156 85.3209 -126.4094 0.0000 9.4333 0.0000 0.0000 0.0000 0.0000 
